<mxfile host="app.diagrams.net" modified="2020-08-27T08:40:51.099Z" agent="5.0 (Windows NT 10.0; Win64; x64) AppleWebKit/537.36 (KHTML, like Gecko) Chrome/81.0.4044.113 Safari/537.36" etag="7yBNsjmnjdO-roW__l8p" version="13.6.5" type="github">
  <diagram id="8vdtSeNukARw49CFrAyH" name="Page-1">
    <mxGraphModel dx="2249" dy="905" grid="1" gridSize="10" guides="1" tooltips="1" connect="1" arrows="1" fold="1" page="1" pageScale="1" pageWidth="827" pageHeight="1169" math="0" shadow="0">
      <root>
        <mxCell id="0" />
        <mxCell id="1" parent="0" />
        <mxCell id="KVBUYIjwvQeicDJQ01_f-8" style="edgeStyle=orthogonalEdgeStyle;rounded=0;orthogonalLoop=1;jettySize=auto;html=1;exitX=0.5;exitY=1;exitDx=0;exitDy=0;entryX=0.5;entryY=0;entryDx=0;entryDy=0;" edge="1" parent="1" source="86KxqrbWE0M6q4CwEYs0-1" target="KVBUYIjwvQeicDJQ01_f-3">
          <mxGeometry relative="1" as="geometry" />
        </mxCell>
        <mxCell id="86KxqrbWE0M6q4CwEYs0-1" value="创建server.el对象" style="rounded=1;whiteSpace=wrap;html=1;" parent="1" vertex="1">
          <mxGeometry x="95" y="90" width="120" height="30" as="geometry" />
        </mxCell>
        <mxCell id="KVBUYIjwvQeicDJQ01_f-9" style="edgeStyle=orthogonalEdgeStyle;rounded=0;orthogonalLoop=1;jettySize=auto;html=1;exitX=0.5;exitY=1;exitDx=0;exitDy=0;exitPerimeter=0;entryX=0.5;entryY=0;entryDx=0;entryDy=0;" edge="1" parent="1" source="KVBUYIjwvQeicDJQ01_f-2" target="86KxqrbWE0M6q4CwEYs0-1">
          <mxGeometry relative="1" as="geometry" />
        </mxCell>
        <mxCell id="KVBUYIjwvQeicDJQ01_f-2" value="" style="strokeWidth=2;html=1;shape=mxgraph.flowchart.start_1;whiteSpace=wrap;" vertex="1" parent="1">
          <mxGeometry x="140" y="40" width="30" height="30" as="geometry" />
        </mxCell>
        <mxCell id="KVBUYIjwvQeicDJQ01_f-5" value="" style="edgeStyle=orthogonalEdgeStyle;rounded=0;orthogonalLoop=1;jettySize=auto;html=1;" edge="1" parent="1" source="KVBUYIjwvQeicDJQ01_f-3" target="KVBUYIjwvQeicDJQ01_f-4">
          <mxGeometry relative="1" as="geometry" />
        </mxCell>
        <mxCell id="KVBUYIjwvQeicDJQ01_f-3" value="向server.el中添加定时任务&lt;br&gt;（把serverCron方法绑定到 timeEvent上）" style="rounded=1;whiteSpace=wrap;html=1;" vertex="1" parent="1">
          <mxGeometry x="40" y="150" width="230" height="40" as="geometry" />
        </mxCell>
        <mxCell id="KVBUYIjwvQeicDJQ01_f-19" value="" style="edgeStyle=orthogonalEdgeStyle;rounded=0;orthogonalLoop=1;jettySize=auto;html=1;" edge="1" parent="1" source="KVBUYIjwvQeicDJQ01_f-4" target="KVBUYIjwvQeicDJQ01_f-18">
          <mxGeometry relative="1" as="geometry" />
        </mxCell>
        <mxCell id="KVBUYIjwvQeicDJQ01_f-4" value="向server.el中添加文件事件（TCP连接）" style="rounded=1;whiteSpace=wrap;html=1;" vertex="1" parent="1">
          <mxGeometry x="40" y="220" width="230" height="30" as="geometry" />
        </mxCell>
        <mxCell id="KVBUYIjwvQeicDJQ01_f-11" value="" style="strokeWidth=2;html=1;shape=mxgraph.flowchart.annotation_2;align=left;labelPosition=right;pointerEvents=1;" vertex="1" parent="1">
          <mxGeometry x="-10" y="90" width="40" height="160" as="geometry" />
        </mxCell>
        <mxCell id="KVBUYIjwvQeicDJQ01_f-13" value="initServer&lt;br&gt;部分功能" style="text;html=1;align=center;verticalAlign=middle;resizable=0;points=[];autosize=1;" vertex="1" parent="1">
          <mxGeometry x="-75" y="155" width="70" height="30" as="geometry" />
        </mxCell>
        <mxCell id="KVBUYIjwvQeicDJQ01_f-24" value="" style="edgeStyle=orthogonalEdgeStyle;rounded=0;orthogonalLoop=1;jettySize=auto;html=1;" edge="1" parent="1" source="KVBUYIjwvQeicDJQ01_f-14" target="KVBUYIjwvQeicDJQ01_f-23">
          <mxGeometry relative="1" as="geometry" />
        </mxCell>
        <mxCell id="KVBUYIjwvQeicDJQ01_f-14" value="!eventLoop-&amp;gt;stop" style="strokeWidth=2;html=1;shape=mxgraph.flowchart.decision;whiteSpace=wrap;" vertex="1" parent="1">
          <mxGeometry x="95" y="340" width="120" height="70" as="geometry" />
        </mxCell>
        <mxCell id="KVBUYIjwvQeicDJQ01_f-20" value="" style="edgeStyle=orthogonalEdgeStyle;rounded=0;orthogonalLoop=1;jettySize=auto;html=1;" edge="1" parent="1" source="KVBUYIjwvQeicDJQ01_f-18" target="KVBUYIjwvQeicDJQ01_f-14">
          <mxGeometry relative="1" as="geometry" />
        </mxCell>
        <mxCell id="KVBUYIjwvQeicDJQ01_f-18" value="eventLoop-&amp;gt;stop=0" style="rounded=1;whiteSpace=wrap;html=1;" vertex="1" parent="1">
          <mxGeometry x="70" y="280" width="170" height="30" as="geometry" />
        </mxCell>
        <mxCell id="KVBUYIjwvQeicDJQ01_f-26" style="edgeStyle=orthogonalEdgeStyle;rounded=0;orthogonalLoop=1;jettySize=auto;html=1;exitX=0.5;exitY=1;exitDx=0;exitDy=0;entryX=0;entryY=0.5;entryDx=0;entryDy=0;entryPerimeter=0;" edge="1" parent="1" source="KVBUYIjwvQeicDJQ01_f-21" target="KVBUYIjwvQeicDJQ01_f-14">
          <mxGeometry relative="1" as="geometry">
            <Array as="points">
              <mxPoint x="155" y="540" />
              <mxPoint x="50" y="540" />
              <mxPoint x="50" y="375" />
            </Array>
          </mxGeometry>
        </mxCell>
        <mxCell id="KVBUYIjwvQeicDJQ01_f-33" style="edgeStyle=orthogonalEdgeStyle;rounded=0;orthogonalLoop=1;jettySize=auto;html=1;exitX=1;exitY=0.25;exitDx=0;exitDy=0;entryX=0.5;entryY=0;entryDx=0;entryDy=0;" edge="1" parent="1" source="KVBUYIjwvQeicDJQ01_f-21" target="KVBUYIjwvQeicDJQ01_f-31">
          <mxGeometry relative="1" as="geometry">
            <Array as="points">
              <mxPoint x="290" y="498" />
              <mxPoint x="290" y="60" />
              <mxPoint x="455" y="60" />
            </Array>
          </mxGeometry>
        </mxCell>
        <mxCell id="KVBUYIjwvQeicDJQ01_f-21" value="调用 aeProcessEvents" style="rounded=1;whiteSpace=wrap;html=1;" vertex="1" parent="1">
          <mxGeometry x="90" y="490" width="130" height="30" as="geometry" />
        </mxCell>
        <mxCell id="KVBUYIjwvQeicDJQ01_f-25" value="" style="edgeStyle=orthogonalEdgeStyle;rounded=0;orthogonalLoop=1;jettySize=auto;html=1;" edge="1" parent="1" source="KVBUYIjwvQeicDJQ01_f-23" target="KVBUYIjwvQeicDJQ01_f-21">
          <mxGeometry relative="1" as="geometry" />
        </mxCell>
        <mxCell id="KVBUYIjwvQeicDJQ01_f-23" value="调用&amp;nbsp;beforesleep" style="rounded=1;whiteSpace=wrap;html=1;" vertex="1" parent="1">
          <mxGeometry x="90" y="440" width="130" height="30" as="geometry" />
        </mxCell>
        <mxCell id="KVBUYIjwvQeicDJQ01_f-27" value="" style="strokeWidth=2;html=1;shape=mxgraph.flowchart.annotation_2;align=left;labelPosition=right;pointerEvents=1;" vertex="1" parent="1">
          <mxGeometry x="-20" y="280" width="50" height="260" as="geometry" />
        </mxCell>
        <mxCell id="KVBUYIjwvQeicDJQ01_f-30" value="aeMain&lt;br&gt;整个Redis生命周期&lt;br&gt;都在这个循环内" style="text;html=1;align=center;verticalAlign=middle;resizable=0;points=[];autosize=1;" vertex="1" parent="1">
          <mxGeometry x="-130" y="385" width="120" height="50" as="geometry" />
        </mxCell>
        <mxCell id="KVBUYIjwvQeicDJQ01_f-37" value="" style="edgeStyle=orthogonalEdgeStyle;rounded=0;orthogonalLoop=1;jettySize=auto;html=1;" edge="1" parent="1" source="KVBUYIjwvQeicDJQ01_f-31" target="KVBUYIjwvQeicDJQ01_f-36">
          <mxGeometry relative="1" as="geometry" />
        </mxCell>
        <mxCell id="KVBUYIjwvQeicDJQ01_f-31" value="调&amp;nbsp;aeSearchNearestTimer&lt;br&gt;返回最近要执行的timeEvent的执行时间" style="rounded=1;whiteSpace=wrap;html=1;" vertex="1" parent="1">
          <mxGeometry x="345" y="90" width="220" height="50" as="geometry" />
        </mxCell>
        <mxCell id="KVBUYIjwvQeicDJQ01_f-34" value="" style="strokeWidth=2;html=1;shape=mxgraph.flowchart.annotation_2;align=left;labelPosition=right;pointerEvents=1;rotation=-180;" vertex="1" parent="1">
          <mxGeometry x="585" y="90" width="30" height="50" as="geometry" />
        </mxCell>
        <mxCell id="KVBUYIjwvQeicDJQ01_f-35" value="做法是：&lt;span&gt;遍历eventLoop-&amp;gt;timeEvent链表，&lt;/span&gt;&lt;br&gt;检查最小的 aeTimeEvent -&amp;gt; when_sec 和 when_ms&lt;br&gt;如果 timeEvent链表没有节点，返回null" style="text;html=1;align=center;verticalAlign=middle;resizable=0;points=[];autosize=1;" vertex="1" parent="1">
          <mxGeometry x="615" y="90" width="290" height="50" as="geometry" />
        </mxCell>
        <mxCell id="KVBUYIjwvQeicDJQ01_f-39" value="" style="edgeStyle=orthogonalEdgeStyle;rounded=0;orthogonalLoop=1;jettySize=auto;html=1;" edge="1" parent="1" source="KVBUYIjwvQeicDJQ01_f-36" target="KVBUYIjwvQeicDJQ01_f-38">
          <mxGeometry relative="1" as="geometry" />
        </mxCell>
        <mxCell id="KVBUYIjwvQeicDJQ01_f-36" value="调 aeApiPoll,&lt;br&gt;把Ready的FD放入eventLoop-&amp;gt;fire链表&lt;br&gt;并返回Ready个数" style="rounded=1;whiteSpace=wrap;html=1;" vertex="1" parent="1">
          <mxGeometry x="345" y="160" width="220" height="50" as="geometry" />
        </mxCell>
        <mxCell id="KVBUYIjwvQeicDJQ01_f-41" value="" style="edgeStyle=orthogonalEdgeStyle;rounded=0;orthogonalLoop=1;jettySize=auto;html=1;" edge="1" parent="1" source="KVBUYIjwvQeicDJQ01_f-38" target="KVBUYIjwvQeicDJQ01_f-40">
          <mxGeometry relative="1" as="geometry" />
        </mxCell>
        <mxCell id="KVBUYIjwvQeicDJQ01_f-38" value="遍历 eventLoop-&amp;gt;fired链表元素" style="rounded=1;whiteSpace=wrap;html=1;" vertex="1" parent="1">
          <mxGeometry x="357.5" y="240" width="195" height="30" as="geometry" />
        </mxCell>
        <mxCell id="KVBUYIjwvQeicDJQ01_f-45" style="edgeStyle=orthogonalEdgeStyle;rounded=0;orthogonalLoop=1;jettySize=auto;html=1;exitX=1;exitY=0.5;exitDx=0;exitDy=0;exitPerimeter=0;entryX=0.5;entryY=0;entryDx=0;entryDy=0;" edge="1" parent="1" source="KVBUYIjwvQeicDJQ01_f-40" target="KVBUYIjwvQeicDJQ01_f-44">
          <mxGeometry relative="1" as="geometry" />
        </mxCell>
        <mxCell id="KVBUYIjwvQeicDJQ01_f-40" value="判断FD是&lt;br&gt;可读还是可写" style="strokeWidth=2;html=1;shape=mxgraph.flowchart.decision;whiteSpace=wrap;" vertex="1" parent="1">
          <mxGeometry x="390" y="300" width="130" height="70" as="geometry" />
        </mxCell>
        <mxCell id="KVBUYIjwvQeicDJQ01_f-50" style="edgeStyle=orthogonalEdgeStyle;rounded=0;orthogonalLoop=1;jettySize=auto;html=1;exitX=0.5;exitY=1;exitDx=0;exitDy=0;entryX=0.5;entryY=0;entryDx=0;entryDy=0;" edge="1" parent="1" source="KVBUYIjwvQeicDJQ01_f-42" target="KVBUYIjwvQeicDJQ01_f-49">
          <mxGeometry relative="1" as="geometry" />
        </mxCell>
        <mxCell id="KVBUYIjwvQeicDJQ01_f-42" value="触发&lt;br&gt;aeFileEvent-&amp;gt;rfileProc" style="rounded=1;whiteSpace=wrap;html=1;strokeColor=#FF3333;" vertex="1" parent="1">
          <mxGeometry x="310" y="385" width="130" height="40" as="geometry" />
        </mxCell>
        <mxCell id="KVBUYIjwvQeicDJQ01_f-43" style="edgeStyle=orthogonalEdgeStyle;rounded=0;orthogonalLoop=1;jettySize=auto;html=1;exitX=0;exitY=0.5;exitDx=0;exitDy=0;exitPerimeter=0;entryX=0.5;entryY=0;entryDx=0;entryDy=0;" edge="1" parent="1" source="KVBUYIjwvQeicDJQ01_f-40" target="KVBUYIjwvQeicDJQ01_f-42">
          <mxGeometry relative="1" as="geometry">
            <Array as="points">
              <mxPoint x="375" y="335" />
            </Array>
          </mxGeometry>
        </mxCell>
        <mxCell id="KVBUYIjwvQeicDJQ01_f-51" style="edgeStyle=orthogonalEdgeStyle;rounded=0;orthogonalLoop=1;jettySize=auto;html=1;exitX=0.5;exitY=1;exitDx=0;exitDy=0;entryX=0.5;entryY=0;entryDx=0;entryDy=0;" edge="1" parent="1" source="KVBUYIjwvQeicDJQ01_f-44" target="KVBUYIjwvQeicDJQ01_f-49">
          <mxGeometry relative="1" as="geometry" />
        </mxCell>
        <mxCell id="KVBUYIjwvQeicDJQ01_f-44" value="触发&lt;br&gt;aeFileEvent-&amp;gt;wfileProc" style="rounded=1;whiteSpace=wrap;html=1;strokeColor=#FF0000;" vertex="1" parent="1">
          <mxGeometry x="480" y="385" width="130" height="40" as="geometry" />
        </mxCell>
        <mxCell id="KVBUYIjwvQeicDJQ01_f-55" value="" style="edgeStyle=orthogonalEdgeStyle;rounded=0;orthogonalLoop=1;jettySize=auto;html=1;" edge="1" parent="1" source="KVBUYIjwvQeicDJQ01_f-49" target="KVBUYIjwvQeicDJQ01_f-54">
          <mxGeometry relative="1" as="geometry" />
        </mxCell>
        <mxCell id="KVBUYIjwvQeicDJQ01_f-49" value="遍历完成" style="rounded=1;whiteSpace=wrap;html=1;" vertex="1" parent="1">
          <mxGeometry x="400" y="470" width="110" height="30" as="geometry" />
        </mxCell>
        <mxCell id="KVBUYIjwvQeicDJQ01_f-56" style="edgeStyle=orthogonalEdgeStyle;rounded=0;orthogonalLoop=1;jettySize=auto;html=1;exitX=0.5;exitY=1;exitDx=0;exitDy=0;entryX=1;entryY=0.75;entryDx=0;entryDy=0;" edge="1" parent="1" source="KVBUYIjwvQeicDJQ01_f-54" target="KVBUYIjwvQeicDJQ01_f-21">
          <mxGeometry relative="1" as="geometry">
            <Array as="points">
              <mxPoint x="455" y="570" />
              <mxPoint x="290" y="570" />
              <mxPoint x="290" y="512" />
            </Array>
          </mxGeometry>
        </mxCell>
        <mxCell id="KVBUYIjwvQeicDJQ01_f-54" value="调用processTimeEvents" style="rounded=1;whiteSpace=wrap;html=1;" vertex="1" parent="1">
          <mxGeometry x="370" y="520" width="170" height="30" as="geometry" />
        </mxCell>
        <mxCell id="KVBUYIjwvQeicDJQ01_f-67" value="" style="edgeStyle=orthogonalEdgeStyle;rounded=0;orthogonalLoop=1;jettySize=auto;html=1;entryX=0.5;entryY=0;entryDx=0;entryDy=0;" edge="1" parent="1" source="KVBUYIjwvQeicDJQ01_f-57" target="KVBUYIjwvQeicDJQ01_f-58">
          <mxGeometry relative="1" as="geometry" />
        </mxCell>
        <mxCell id="KVBUYIjwvQeicDJQ01_f-57" value="解决时间穿插(TimeSkew)问题" style="rounded=1;whiteSpace=wrap;html=1;" vertex="1" parent="1">
          <mxGeometry x="725" y="500" width="170" height="30" as="geometry" />
        </mxCell>
        <mxCell id="KVBUYIjwvQeicDJQ01_f-68" style="edgeStyle=orthogonalEdgeStyle;rounded=0;orthogonalLoop=1;jettySize=auto;html=1;exitX=0.5;exitY=1;exitDx=0;exitDy=0;entryX=0.5;entryY=0;entryDx=0;entryDy=0;" edge="1" parent="1" source="KVBUYIjwvQeicDJQ01_f-58" target="KVBUYIjwvQeicDJQ01_f-59">
          <mxGeometry relative="1" as="geometry" />
        </mxCell>
        <mxCell id="KVBUYIjwvQeicDJQ01_f-58" value="记录 lastTime=now" style="rounded=1;whiteSpace=wrap;html=1;" vertex="1" parent="1">
          <mxGeometry x="725" y="550" width="170" height="30" as="geometry" />
        </mxCell>
        <mxCell id="KVBUYIjwvQeicDJQ01_f-70" style="edgeStyle=orthogonalEdgeStyle;rounded=0;orthogonalLoop=1;jettySize=auto;html=1;exitX=0.5;exitY=1;exitDx=0;exitDy=0;entryX=0.5;entryY=0;entryDx=0;entryDy=0;entryPerimeter=0;" edge="1" parent="1" source="KVBUYIjwvQeicDJQ01_f-59" target="KVBUYIjwvQeicDJQ01_f-60">
          <mxGeometry relative="1" as="geometry" />
        </mxCell>
        <mxCell id="KVBUYIjwvQeicDJQ01_f-59" value="遍历 timeEvent 链表" style="rounded=1;whiteSpace=wrap;html=1;" vertex="1" parent="1">
          <mxGeometry x="725" y="600" width="170" height="30" as="geometry" />
        </mxCell>
        <mxCell id="KVBUYIjwvQeicDJQ01_f-71" style="edgeStyle=orthogonalEdgeStyle;rounded=0;orthogonalLoop=1;jettySize=auto;html=1;exitX=0.5;exitY=1;exitDx=0;exitDy=0;exitPerimeter=0;entryX=0.5;entryY=0;entryDx=0;entryDy=0;" edge="1" parent="1" source="KVBUYIjwvQeicDJQ01_f-60" target="KVBUYIjwvQeicDJQ01_f-61">
          <mxGeometry relative="1" as="geometry" />
        </mxCell>
        <mxCell id="KVBUYIjwvQeicDJQ01_f-60" value="如果到了&lt;br&gt;节点执行时间" style="strokeWidth=2;html=1;shape=mxgraph.flowchart.decision;whiteSpace=wrap;" vertex="1" parent="1">
          <mxGeometry x="747.5" y="655" width="125" height="50" as="geometry" />
        </mxCell>
        <mxCell id="KVBUYIjwvQeicDJQ01_f-72" style="edgeStyle=orthogonalEdgeStyle;rounded=0;orthogonalLoop=1;jettySize=auto;html=1;exitX=0.5;exitY=1;exitDx=0;exitDy=0;entryX=0.5;entryY=0;entryDx=0;entryDy=0;entryPerimeter=0;" edge="1" parent="1" source="KVBUYIjwvQeicDJQ01_f-61" target="KVBUYIjwvQeicDJQ01_f-63">
          <mxGeometry relative="1" as="geometry" />
        </mxCell>
        <mxCell id="KVBUYIjwvQeicDJQ01_f-61" value="触发&amp;nbsp; te-&amp;gt;timeProc &lt;br&gt;返回执行时间间隔 retval" style="rounded=1;whiteSpace=wrap;html=1;" vertex="1" parent="1">
          <mxGeometry x="725" y="730" width="170" height="30" as="geometry" />
        </mxCell>
        <mxCell id="KVBUYIjwvQeicDJQ01_f-73" style="edgeStyle=orthogonalEdgeStyle;rounded=0;orthogonalLoop=1;jettySize=auto;html=1;exitX=0;exitY=0.5;exitDx=0;exitDy=0;exitPerimeter=0;entryX=0.5;entryY=0;entryDx=0;entryDy=0;" edge="1" parent="1" source="KVBUYIjwvQeicDJQ01_f-63" target="KVBUYIjwvQeicDJQ01_f-64">
          <mxGeometry relative="1" as="geometry" />
        </mxCell>
        <mxCell id="KVBUYIjwvQeicDJQ01_f-74" style="edgeStyle=orthogonalEdgeStyle;rounded=0;orthogonalLoop=1;jettySize=auto;html=1;exitX=1;exitY=0.5;exitDx=0;exitDy=0;exitPerimeter=0;entryX=0.5;entryY=0;entryDx=0;entryDy=0;" edge="1" parent="1" source="KVBUYIjwvQeicDJQ01_f-63" target="KVBUYIjwvQeicDJQ01_f-65">
          <mxGeometry relative="1" as="geometry" />
        </mxCell>
        <mxCell id="KVBUYIjwvQeicDJQ01_f-63" value="retval != -1" style="strokeWidth=2;html=1;shape=mxgraph.flowchart.decision;whiteSpace=wrap;" vertex="1" parent="1">
          <mxGeometry x="751.25" y="780" width="117.5" height="50" as="geometry" />
        </mxCell>
        <mxCell id="KVBUYIjwvQeicDJQ01_f-75" style="edgeStyle=orthogonalEdgeStyle;rounded=0;orthogonalLoop=1;jettySize=auto;html=1;exitX=0.5;exitY=1;exitDx=0;exitDy=0;entryX=0.5;entryY=0;entryDx=0;entryDy=0;" edge="1" parent="1" source="KVBUYIjwvQeicDJQ01_f-64" target="KVBUYIjwvQeicDJQ01_f-66">
          <mxGeometry relative="1" as="geometry" />
        </mxCell>
        <mxCell id="KVBUYIjwvQeicDJQ01_f-64" value="调aeAddMillisecondsToNow&lt;br&gt;更新下次执行时间" style="rounded=1;whiteSpace=wrap;html=1;" vertex="1" parent="1">
          <mxGeometry x="630" y="850" width="170" height="30" as="geometry" />
        </mxCell>
        <mxCell id="KVBUYIjwvQeicDJQ01_f-76" style="edgeStyle=orthogonalEdgeStyle;rounded=0;orthogonalLoop=1;jettySize=auto;html=1;exitX=0.5;exitY=1;exitDx=0;exitDy=0;entryX=0.5;entryY=0;entryDx=0;entryDy=0;" edge="1" parent="1" source="KVBUYIjwvQeicDJQ01_f-65" target="KVBUYIjwvQeicDJQ01_f-66">
          <mxGeometry relative="1" as="geometry" />
        </mxCell>
        <mxCell id="KVBUYIjwvQeicDJQ01_f-65" value="调&amp;nbsp;aeDeleteTimeEvent&lt;br&gt;删除该 timeEvent" style="rounded=1;whiteSpace=wrap;html=1;" vertex="1" parent="1">
          <mxGeometry x="835" y="850" width="130" height="30" as="geometry" />
        </mxCell>
        <mxCell id="KVBUYIjwvQeicDJQ01_f-66" value="将te指回表头，重新遍历" style="rounded=1;whiteSpace=wrap;html=1;" vertex="1" parent="1">
          <mxGeometry x="725" y="920" width="170" height="30" as="geometry" />
        </mxCell>
        <mxCell id="KVBUYIjwvQeicDJQ01_f-78" value="系统调用：select&amp;nbsp;" style="rounded=1;whiteSpace=wrap;html=1;" vertex="1" parent="1">
          <mxGeometry x="657" y="155" width="170" height="30" as="geometry" />
        </mxCell>
        <mxCell id="KVBUYIjwvQeicDJQ01_f-79" value="retval &amp;gt;0" style="strokeWidth=2;html=1;shape=mxgraph.flowchart.decision;whiteSpace=wrap;" vertex="1" parent="1">
          <mxGeometry x="696" y="205" width="92" height="35" as="geometry" />
        </mxCell>
        <mxCell id="KVBUYIjwvQeicDJQ01_f-80" value="遍历文件事件&lt;br&gt;&amp;nbsp;eventLoop-&amp;gt;events" style="rounded=1;whiteSpace=wrap;html=1;" vertex="1" parent="1">
          <mxGeometry x="657" y="260" width="170" height="30" as="geometry" />
        </mxCell>
        <mxCell id="KVBUYIjwvQeicDJQ01_f-81" value="标记文件是否可读、可写" style="rounded=1;whiteSpace=wrap;html=1;" vertex="1" parent="1">
          <mxGeometry x="657" y="310" width="170" height="30" as="geometry" />
        </mxCell>
        <mxCell id="KVBUYIjwvQeicDJQ01_f-82" value="把Ready的FD放入&lt;br&gt;eventLoop-&amp;gt;fired 中" style="rounded=1;whiteSpace=wrap;html=1;" vertex="1" parent="1">
          <mxGeometry x="657" y="360" width="170" height="30" as="geometry" />
        </mxCell>
        <mxCell id="KVBUYIjwvQeicDJQ01_f-83" value="返回Ready的时间数量" style="rounded=1;whiteSpace=wrap;html=1;" vertex="1" parent="1">
          <mxGeometry x="660" y="410" width="170" height="30" as="geometry" />
        </mxCell>
      </root>
    </mxGraphModel>
  </diagram>
</mxfile>
